<svg width="23" height="25" viewBox="0 0 23 25" fill="none" xmlns="http://www.w3.org/2000/svg">
<path fill-rule="evenodd" clip-rule="evenodd" d="M9.50497 -0.00918579C8.07578 -0.00918579 6.91719 1.1494 6.91719 2.5786V3.47134H1.38701C0.910611 3.47134 0.524414 3.85754 0.524414 4.33394C0.524414 4.81033 0.910611 5.19653 1.38701 5.19653C8.22964 5.19653 15.0723 5.19653 21.9149 5.19653C22.3913 5.19653 22.7775 4.81033 22.7775 4.33394C22.7775 3.85754 22.3913 3.47134 21.9149 3.47134H16.3137V2.57863C16.3137 1.14946 15.1552 -0.00918579 13.7259 -0.00918579H9.50497ZM14.5885 3.47134H8.64238V2.5786C8.64238 2.1022 9.02858 1.716 9.50497 1.716H13.7259C14.2023 1.716 14.5885 2.10221 14.5885 2.57863V3.47134Z" fill="black"/>
<path fill-rule="evenodd" clip-rule="evenodd" d="M3.10181 7.32762H20.2002V21.1178C20.2002 22.7747 18.8571 24.1178 17.2002 24.1178H6.10181C4.44495 24.1178 3.10181 22.7747 3.10181 21.1178V7.32762ZM8.02271 10.7921C8.02271 10.2335 8.47549 9.78072 9.03406 9.78072C9.59262 9.78072 10.0454 10.2335 10.0454 10.7921V20.2512C10.0454 20.8098 9.59262 21.2625 9.03406 21.2625C8.47549 21.2625 8.02271 20.8098 8.02271 20.2512V10.7921ZM13.8949 9.78072C13.3363 9.78072 12.8835 10.2335 12.8835 10.7921V20.2512C12.8835 20.8098 13.3363 21.2625 13.8949 21.2625C14.4535 21.2625 14.9062 20.8098 14.9062 20.2512V10.7921C14.9062 10.2335 14.4535 9.78072 13.8949 9.78072Z" fill="black"/>
</svg>
