<svg width="35" height="33" viewBox="0 0 35 33" fill="none" xmlns="http://www.w3.org/2000/svg">
<path fill-rule="evenodd" clip-rule="evenodd" d="M10.3113 5.54037C8.72908 5.54037 7.44647 6.82298 7.44647 8.40516V9.39347H1.32431C0.796921 9.39347 0.369385 9.82101 0.369385 10.3484C0.369385 10.8758 0.796921 11.3033 1.32431 11.3033C8.89941 11.3033 16.4745 11.3033 24.0496 11.3033C24.577 11.3033 25.0045 10.8758 25.0045 10.3484C25.0045 9.82101 24.577 9.39347 24.0496 9.39347H17.8488V8.4052C17.8488 6.82305 16.5663 5.54037 14.984 5.54037H10.3113ZM15.939 9.39347H9.35632V8.40516C9.35632 7.87777 9.78386 7.45023 10.3113 7.45023H14.984C15.5114 7.45023 15.939 7.87778 15.939 8.4052V9.39347Z" fill="white"/>
<path fill-rule="evenodd" clip-rule="evenodd" d="M3.22267 13.6625H22.1513V28.9289C22.1513 30.7631 20.6644 32.25 18.8302 32.25H6.5438C4.70958 32.25 3.22267 30.7631 3.22267 28.9289V13.6625ZM8.67032 17.4978C8.67032 16.8795 9.17158 16.3782 9.78993 16.3782C10.4083 16.3782 10.9095 16.8795 10.9095 17.4978V27.9695C10.9095 28.5878 10.4083 29.0891 9.78993 29.0891C9.17158 29.0891 8.67032 28.5878 8.67032 27.9695V17.4978ZM15.1711 16.3782C14.5527 16.3782 14.0515 16.8795 14.0515 17.4978V27.9695C14.0515 28.5878 14.5527 29.0891 15.1711 29.0891C15.7894 29.0891 16.2907 28.5878 16.2907 27.9695V17.4978C16.2907 16.8795 15.7894 16.3782 15.1711 16.3782Z" fill="white"/>
<path d="M21.4158 6.82521H20.085L22.1128 0.950989H23.7133L25.7383 6.82521H24.4074L22.936 2.29334H22.8901L21.4158 6.82521ZM21.3327 4.51625H24.4763V5.48573H21.3327V4.51625Z" fill="white"/>
<path d="M26.4454 6.82521V0.950989H27.6873V5.80124H30.2057V6.82521H26.4454Z" fill="white"/>
<path d="M31.0281 6.82521V0.950989H32.2701V5.80124H34.7885V6.82521H31.0281Z" fill="white"/>
</svg>
