<svg width="21" height="25" viewBox="0 0 21 25" fill="none" xmlns="http://www.w3.org/2000/svg">
<path fill-rule="evenodd" clip-rule="evenodd" d="M10.463 5.04575L17.4044 10.4351C14.6887 13.9328 10.4408 19.4015 8.64854 21.7124C8.42735 21.9973 8.13323 22.217 7.79732 22.3484L1.98831 24.6206C1.28901 24.8941 0.548971 24.328 0.629865 23.5815L1.30818 17.3218C1.3481 16.9534 1.48956 16.6034 1.71679 16.3107C4.06428 13.287 7.66446 8.65024 10.463 5.04575ZM13.0774 8.8435C12.6204 8.48868 11.9623 8.57151 11.6074 9.02851L5.06292 17.4577C4.7081 17.9147 4.79093 18.5728 5.24793 18.9276C5.70494 19.2824 6.36305 19.1996 6.71788 18.7426L13.2624 10.3134C13.6172 9.85644 13.5344 9.19832 13.0774 8.8435Z" fill="black"/>
<path d="M18.6417 8.8414L11.7004 3.45205L13.4069 1.25407C14.0843 0.381593 15.3408 0.22346 16.2132 0.90087L19.9951 3.83718C20.8675 4.51458 21.0257 5.77099 20.3483 6.64346L18.6417 8.8414Z" fill="black"/>
</svg>
