<svg width="26" height="25" viewBox="0 0 26 25" fill="none" xmlns="http://www.w3.org/2000/svg">
<path fill-rule="evenodd" clip-rule="evenodd" d="M10.8447 9.77739C10.8447 9.16988 11.3372 8.67739 11.9447 8.67739L20.0988 8.67739C20.7063 8.67739 21.1988 9.16988 21.1988 9.77739C21.1988 10.3849 20.7063 10.8774 20.0988 10.8774L11.9447 10.8774C11.3372 10.8774 10.8447 10.3849 10.8447 9.77739Z" fill="black"/>
<path d="M4.22531 24.3394L12.3646 16.5367L9.34842 13.7L1.47149 21.5158C0.703303 22.2781 0.692844 23.517 1.44806 24.292C2.20379 25.0677 3.44357 25.0888 4.22531 24.3394Z" fill="black"/>
<path fill-rule="evenodd" clip-rule="evenodd" d="M16.0219 19.2109C21.2318 19.2109 25.4553 14.9874 25.4553 9.77739C25.4553 4.56742 21.2318 0.34391 16.0219 0.34391C10.8119 0.34391 6.58838 4.56742 6.58838 9.77739C6.58838 14.9874 10.8119 19.2109 16.0219 19.2109ZM16.0216 17.1088C20.0707 17.1088 23.3531 13.8264 23.3531 9.77738C23.3531 5.72833 20.0707 2.44592 16.0216 2.44592C11.9726 2.44592 8.69018 5.72833 8.69018 9.77738C8.69018 13.8264 11.9726 17.1088 16.0216 17.1088Z" fill="black"/>
</svg>
