<svg width="133" height="45" viewBox="0 0 133 45" fill="none" xmlns="http://www.w3.org/2000/svg">
<g filter="url(#filter0_d_1055_51)">
<path d="M16.2251 12.8035C16.6159 9.04559 19.979 6.316 23.7368 6.70676L38.0227 8.19224C41.7806 8.58299 44.5102 11.9461 44.1194 15.704L42.634 29.9899C42.2432 33.7477 38.8801 36.4773 35.1222 36.0866L20.8363 34.6011C17.0785 34.2103 14.3489 30.8472 14.7396 27.0893L16.2251 12.8035Z" fill="#6CB5DF"/>
</g>
<g filter="url(#filter1_d_1055_51)">
<path d="M5.01617 12.6571C4.64279 8.89745 7.38788 5.54697 11.1475 5.17358L25.4401 3.75412C29.1997 3.38073 32.5502 6.12583 32.9236 9.88546L34.3431 24.1781C34.7165 27.9377 31.9714 31.2882 28.2117 31.6616L13.9191 33.081C10.1595 33.4544 6.80902 30.7093 6.43564 26.9497L5.01617 12.6571Z" fill="#B1FFB3"/>
</g>
<g filter="url(#filter2_d_1055_51)">
<path d="M10.8345 7.09016C10.8345 3.31204 13.8972 0.249252 17.6754 0.249252H32.0383C35.8164 0.249252 38.8792 3.31203 38.8792 7.09016V21.4531C38.8792 25.2312 35.8164 28.294 32.0383 28.294H17.6754C13.8973 28.294 10.8345 25.2312 10.8345 21.4531V7.09016Z" fill="#FBE7A2"/>
</g>
<path fill-rule="evenodd" clip-rule="evenodd" d="M16.9679 10.2987C16.7677 10.4266 16.5266 10.6685 16.3071 11.0537C16.0949 11.4263 15.6208 11.5563 15.2482 11.3441C14.8756 11.1319 14.7456 10.6578 14.9578 10.2852C15.2746 9.72915 15.677 9.28086 16.1317 8.99025C16.5831 8.7017 17.1348 8.54263 17.6892 8.68086C18.2641 8.8242 18.6816 9.2469 18.9145 9.79793C19.1405 10.333 19.2061 11.0063 19.1282 11.7813C19.07 12.3606 19.1609 12.8403 19.3123 13.1778C19.469 13.5271 19.6585 13.6648 19.7623 13.7013C19.82 13.7216 19.936 13.7476 20.1417 13.5626C20.3751 13.3527 20.6797 12.8941 20.9294 12.0224C21.2189 11.0117 21.6091 10.2402 22.0855 9.72206C22.5689 9.1964 23.1936 8.88637 23.8703 8.98322C24.5288 9.07743 25.0246 9.52771 25.3331 10.0621C25.6447 10.6018 25.8095 11.2899 25.8095 12.0444C25.8095 12.638 25.8926 13.0094 25.9815 13.2046C25.9882 13.2194 25.9945 13.2323 26.0003 13.2436C26.0555 13.2114 26.1418 13.1495 26.2592 13.0308C26.5111 12.7763 26.8182 12.3448 27.1466 11.6944C27.5195 10.956 27.9281 10.3646 28.3616 9.96133C28.7786 9.57331 29.3432 9.25116 29.9775 9.36663C30.6342 9.48616 31.0302 10.0092 31.2446 10.5423C31.4632 11.0859 31.5647 11.793 31.5647 12.6199C31.5647 12.7913 31.5731 12.9261 31.5853 13.0305C31.6017 13.0194 31.619 13.0074 31.637 12.9946C31.9335 12.7835 32.2734 12.4598 32.6344 12.1084C32.6612 12.0824 32.6885 12.0557 32.7162 12.0287C33.0185 11.7337 33.3707 11.3901 33.6562 11.2031C34.0148 10.9681 34.4961 11.0684 34.7311 11.4271C34.9661 11.7857 34.8658 12.267 34.5071 12.502C34.3551 12.6016 34.1028 12.8462 33.7173 13.2213C33.374 13.5554 32.9484 13.9671 32.5375 14.2596C32.3324 14.4056 32.0886 14.5532 31.8257 14.6387C31.5612 14.7246 31.1884 14.7742 30.8188 14.5851C30.4498 14.3962 30.2547 14.0568 30.1528 13.7404C30.0511 13.4249 30.0119 13.0458 30.0119 12.6199C30.0119 11.896 29.9196 11.4095 29.8039 11.1217C29.7558 11.0019 29.7142 10.9389 29.6878 10.9075C29.6426 10.9254 29.5541 10.9728 29.4193 11.0982C29.1687 11.3313 28.8591 11.748 28.5327 12.3944C28.1619 13.1287 27.7685 13.7133 27.363 14.1231C26.9782 14.5119 26.4692 14.855 25.8788 14.8298C25.2156 14.8016 24.791 14.3371 24.5684 13.8483C24.3495 13.3679 24.2567 12.7457 24.2567 12.0444C24.2567 11.5039 24.1371 11.0961 23.9883 10.8385C23.8365 10.5755 23.696 10.5269 23.6504 10.5204C23.6232 10.5165 23.4762 10.5038 23.2286 10.7731C22.974 11.0499 22.6739 11.571 22.4222 12.45C22.1305 13.4681 21.7144 14.2366 21.18 14.7172C20.6179 15.2227 19.919 15.4025 19.2469 15.1661C18.621 14.9458 18.1659 14.4161 17.8955 13.8134C17.6199 13.1989 17.5012 12.442 17.5832 11.626C17.6455 11.0058 17.5748 10.617 17.4841 10.4023C17.4021 10.2083 17.3242 10.1901 17.3141 10.1877C17.3139 10.1876 17.3137 10.1876 17.3135 10.1875C17.2861 10.1807 17.1713 10.1686 16.9679 10.2987ZM29.6577 10.8794C29.6578 10.8791 29.6602 10.8803 29.6645 10.8838C29.6598 10.8814 29.6576 10.8797 29.6577 10.8794ZM31.647 13.3064C31.647 13.3064 31.6467 13.3059 31.6461 13.3047C31.6468 13.3058 31.647 13.3064 31.647 13.3064ZM26.0465 13.3142C26.0464 13.3146 26.044 13.3127 26.0397 13.3075C26.0444 13.3111 26.0465 13.3138 26.0465 13.3142Z" fill="#E3AD3B"/>
<path fill-rule="evenodd" clip-rule="evenodd" d="M32.875 19.3957C25.8142 18.7293 22.1554 18.9738 15.7949 19.9046C15.3707 19.9667 14.9764 19.6731 14.9143 19.2488C14.8522 18.8246 15.1458 18.4303 15.5701 18.3682C22.0302 17.4228 25.8154 17.1697 33.0209 17.8498C33.4478 17.89 33.7612 18.2688 33.7209 18.6957C33.6806 19.1226 33.3019 19.436 32.875 19.3957Z" fill="#E3AD3B"/>
<g filter="url(#filter3_d_1055_51)">
<path d="M56.3648 7.52675C56.3289 7.16499 56.1749 6.88395 55.9029 6.68363C55.6308 6.48331 55.2616 6.38316 54.7952 6.38316C54.4782 6.38316 54.2107 6.428 53.9924 6.5177C53.7742 6.6044 53.6067 6.72549 53.4901 6.88096C53.3765 7.03642 53.3197 7.21282 53.3197 7.41015C53.3137 7.57459 53.3481 7.7181 53.4229 7.84068C53.5006 7.96326 53.6067 8.0694 53.7413 8.15909C53.8758 8.24579 54.0313 8.32203 54.2077 8.38781C54.3841 8.45059 54.5724 8.50441 54.7727 8.54926L55.5979 8.74658C55.9986 8.83628 56.3663 8.95587 56.7012 9.10536C57.036 9.25485 57.326 9.43872 57.5712 9.65697C57.8163 9.87523 58.0062 10.1323 58.1407 10.4283C58.2783 10.7243 58.3485 11.0637 58.3515 11.4464C58.3485 12.0084 58.205 12.4958 57.921 12.9084C57.6399 13.318 57.2333 13.6364 56.7012 13.8636C56.172 14.0878 55.5336 14.2 54.7862 14.2C54.0447 14.2 53.3989 14.0863 52.8488 13.8591C52.3017 13.6319 51.8741 13.2955 51.5662 12.8501C51.2612 12.4016 51.1013 11.847 51.0863 11.1862H52.9654C52.9863 11.4942 53.0745 11.7513 53.23 11.9576C53.3885 12.1609 53.5992 12.3149 53.8623 12.4195C54.1284 12.5212 54.4289 12.572 54.7638 12.572C55.0926 12.572 55.3782 12.5242 55.6203 12.4285C55.8655 12.3328 56.0554 12.1998 56.1899 12.0294C56.3244 11.859 56.3917 11.6631 56.3917 11.4419C56.3917 11.2356 56.3304 11.0622 56.2078 10.9217C56.0882 10.7811 55.9118 10.6615 55.6786 10.5629C55.4484 10.4642 55.1659 10.3745 54.831 10.2938L53.831 10.0427C53.0566 9.8543 52.4452 9.55981 51.9967 9.15917C51.5483 8.75854 51.3255 8.21889 51.3285 7.5402C51.3255 6.9841 51.4735 6.49826 51.7725 6.08268C52.0745 5.6671 52.4885 5.34271 53.0147 5.10951C53.5409 4.8763 54.1389 4.7597 54.8086 4.7597C55.4903 4.7597 56.0853 4.8763 56.5935 5.10951C57.1048 5.34271 57.5024 5.6671 57.7864 6.08268C58.0705 6.49826 58.217 6.97962 58.2259 7.52675H56.3648Z" fill="white"/>
<path d="M63.2858 7.18143V8.61653H59.1375V7.18143H63.2858ZM60.0792 5.53107H61.9897V11.9531C61.9897 12.1295 62.0166 12.2671 62.0704 12.3657C62.1243 12.4614 62.199 12.5287 62.2947 12.5675C62.3933 12.6064 62.5069 12.6258 62.6355 12.6258C62.7252 12.6258 62.8149 12.6184 62.9046 12.6034C62.9943 12.5855 63.063 12.572 63.1109 12.563L63.4114 13.9847C63.3157 14.0146 63.1811 14.049 63.0077 14.0878C62.8343 14.1297 62.6235 14.1551 62.3754 14.1641C61.915 14.182 61.5113 14.1207 61.1645 13.9802C60.8207 13.8397 60.5531 13.6214 60.3618 13.3254C60.1704 13.0295 60.0762 12.6557 60.0792 12.2043V5.53107Z" fill="white"/>
<path d="M64.5303 14.0699V7.18143H66.4408V14.0699H64.5303ZM65.49 6.29346C65.206 6.29346 64.9623 6.19928 64.759 6.01093C64.5587 5.81958 64.4585 5.59086 64.4585 5.32477C64.4585 5.06167 64.5587 4.83594 64.759 4.64759C64.9623 4.45624 65.206 4.36057 65.49 4.36057C65.774 4.36057 66.0162 4.45624 66.2165 4.64759C66.4198 4.83594 66.5215 5.06167 66.5215 5.32477C66.5215 5.59086 66.4198 5.81958 66.2165 6.01093C66.0162 6.19928 65.774 6.29346 65.49 6.29346Z" fill="white"/>
<path d="M71.0835 14.2044C70.3779 14.2044 69.771 14.0549 69.2627 13.756C68.7575 13.454 68.3688 13.0354 68.0967 12.5003C67.8276 11.9651 67.6931 11.3492 67.6931 10.6526C67.6931 9.94698 67.8291 9.3281 68.1012 8.79591C68.3763 8.26074 68.7664 7.84367 69.2717 7.54469C69.777 7.24272 70.3779 7.09174 71.0746 7.09174C71.6755 7.09174 72.2017 7.20086 72.6532 7.41912C73.1046 7.63737 73.4619 7.94383 73.725 8.33848C73.9881 8.73313 74.1331 9.19655 74.16 9.72873H72.3572C72.3063 9.3849 72.1718 9.10835 71.9536 8.89906C71.7383 8.68679 71.4558 8.58065 71.1059 8.58065C70.81 8.58065 70.5513 8.66137 70.3301 8.82282C70.1118 8.98128 69.9414 9.21299 69.8188 9.51795C69.6963 9.82291 69.635 10.1921 69.635 10.6257C69.635 11.0652 69.6948 11.4389 69.8144 11.7468C69.9369 12.0548 70.1089 12.2895 70.3301 12.4509C70.5513 12.6124 70.81 12.6931 71.1059 12.6931C71.3242 12.6931 71.52 12.6483 71.6934 12.5586C71.8698 12.4689 72.0148 12.3388 72.1285 12.1684C72.2451 11.995 72.3213 11.7872 72.3572 11.545H74.16C74.1301 12.0712 73.9866 12.5346 73.7295 12.9353C73.4754 13.3329 73.1241 13.6439 72.6756 13.8681C72.2271 14.0923 71.6964 14.2044 71.0835 14.2044Z" fill="white"/>
<path d="M77.1143 12.0877L77.1188 9.796H77.3968L79.6033 7.18143H81.7963L78.8319 10.6436H78.379L77.1143 12.0877ZM75.3832 14.0699V4.88527H77.2937V14.0699H75.3832ZM79.6885 14.0699L77.6614 11.0696L78.9351 9.71976L81.9264 14.0699H79.6885Z" fill="white"/>
<path d="M84.0241 16.6531C83.7819 16.6531 83.5547 16.6336 83.3424 16.5948C83.1331 16.5589 82.9597 16.5126 82.8222 16.4557L83.2527 15.0296C83.4769 15.0984 83.6787 15.1358 83.8581 15.1417C84.0405 15.1477 84.1975 15.1059 84.329 15.0162C84.4636 14.9265 84.5727 14.774 84.6564 14.5587L84.7685 14.2672L82.2975 7.18143H84.3066L85.7327 12.2401H85.8045L87.2441 7.18143H89.2667L86.5893 14.8144C86.4607 15.1851 86.2858 15.508 86.0646 15.783C85.8463 16.0611 85.5698 16.2749 85.2349 16.4244C84.9001 16.5768 84.4965 16.6531 84.0241 16.6531Z" fill="white"/>
<path d="M100.885 4.88527V14.0699H99.2081L95.2122 8.28915H95.145V14.0699H93.2031V4.88527H94.9073L98.8717 10.6615H98.9524V4.88527H100.885Z" fill="white"/>
<path d="M105.566 14.2044C104.87 14.2044 104.267 14.0564 103.759 13.7605C103.254 13.4615 102.863 13.0459 102.588 12.5137C102.313 11.9785 102.176 11.3582 102.176 10.6526C102.176 9.941 102.313 9.31913 102.588 8.78695C102.863 8.25177 103.254 7.83619 103.759 7.5402C104.267 7.24123 104.87 7.09174 105.566 7.09174C106.263 7.09174 106.864 7.24123 107.369 7.5402C107.877 7.83619 108.269 8.25177 108.544 8.78695C108.819 9.31913 108.957 9.941 108.957 10.6526C108.957 11.3582 108.819 11.9785 108.544 12.5137C108.269 13.0459 107.877 13.4615 107.369 13.7605C106.864 14.0564 106.263 14.2044 105.566 14.2044ZM105.575 12.7245C105.892 12.7245 106.157 12.6348 106.369 12.4554C106.581 12.273 106.741 12.0249 106.849 11.711C106.959 11.397 107.015 11.0397 107.015 10.6391C107.015 10.2385 106.959 9.88121 106.849 9.56728C106.741 9.25335 106.581 9.0052 106.369 8.82282C106.157 8.64045 105.892 8.54926 105.575 8.54926C105.255 8.54926 104.986 8.64045 104.768 8.82282C104.553 9.0052 104.39 9.25335 104.279 9.56728C104.171 9.88121 104.118 10.2385 104.118 10.6391C104.118 11.0397 104.171 11.397 104.279 11.711C104.39 12.0249 104.553 12.273 104.768 12.4554C104.986 12.6348 105.255 12.7245 105.575 12.7245Z" fill="white"/>
<path d="M113.863 7.18143V8.61653H109.715V7.18143H113.863ZM110.656 5.53107H112.567V11.9531C112.567 12.1295 112.594 12.2671 112.648 12.3657C112.701 12.4614 112.776 12.5287 112.872 12.5675C112.97 12.6064 113.084 12.6258 113.213 12.6258C113.302 12.6258 113.392 12.6184 113.482 12.6034C113.571 12.5855 113.64 12.572 113.688 12.563L113.988 13.9847C113.893 14.0146 113.758 14.049 113.585 14.0878C113.411 14.1297 113.201 14.1551 112.952 14.1641C112.492 14.182 112.088 14.1207 111.742 13.9802C111.398 13.8397 111.13 13.6214 110.939 13.3254C110.748 13.0295 110.653 12.6557 110.656 12.2043V5.53107Z" fill="white"/>
<path d="M118.173 14.2044C117.464 14.2044 116.854 14.0609 116.343 13.7739C115.835 13.4839 115.443 13.0743 115.168 12.5451C114.893 12.0129 114.755 11.3836 114.755 10.6571C114.755 9.94848 114.893 9.3266 115.168 8.79143C115.443 8.25626 115.83 7.83918 116.329 7.5402C116.832 7.24123 117.421 7.09174 118.096 7.09174C118.551 7.09174 118.974 7.16499 119.366 7.31149C119.76 7.455 120.104 7.67175 120.397 7.96176C120.693 8.25177 120.923 8.61653 121.088 9.05603C121.252 9.49253 121.334 10.0038 121.334 10.5898V11.1145H115.518V9.93054H119.536C119.536 9.65548 119.476 9.41181 119.357 9.19954C119.237 8.98726 119.071 8.82133 118.859 8.70174C118.65 8.57915 118.406 8.51786 118.128 8.51786C117.838 8.51786 117.581 8.58513 117.356 8.71967C117.135 8.85123 116.962 9.02912 116.836 9.25335C116.711 9.4746 116.646 9.72125 116.643 9.99332V11.119C116.643 11.4598 116.706 11.7543 116.832 12.0025C116.96 12.2506 117.141 12.442 117.374 12.5765C117.608 12.711 117.884 12.7783 118.204 12.7783C118.416 12.7783 118.611 12.7484 118.787 12.6886C118.963 12.6288 119.114 12.5391 119.24 12.4195C119.366 12.2999 119.461 12.1534 119.527 11.98L121.294 12.0966C121.204 12.5212 121.02 12.8919 120.742 13.2088C120.467 13.5228 120.112 13.7679 119.675 13.9443C119.242 14.1177 118.741 14.2044 118.173 14.2044Z" fill="white"/>
<path d="M128.313 9.14572L126.564 9.25335C126.534 9.10386 126.469 8.96932 126.371 8.84973C126.272 8.72715 126.142 8.62998 125.98 8.55823C125.822 8.48348 125.632 8.44611 125.411 8.44611C125.115 8.44611 124.865 8.5089 124.662 8.63447C124.459 8.75705 124.357 8.92149 124.357 9.12778C124.357 9.29222 124.423 9.43124 124.554 9.54486C124.686 9.65847 124.912 9.74966 125.232 9.81842L126.478 10.0696C127.148 10.2071 127.647 10.4283 127.976 10.7333C128.305 11.0383 128.469 11.4389 128.469 11.9352C128.469 12.3866 128.336 12.7828 128.07 13.1236C127.807 13.4645 127.445 13.7306 126.985 13.9219C126.528 14.1103 126 14.2044 125.402 14.2044C124.49 14.2044 123.764 14.0146 123.222 13.6349C122.684 13.2522 122.369 12.732 122.276 12.0742L124.155 11.9756C124.212 12.2536 124.35 12.4659 124.568 12.6124C124.786 12.7559 125.066 12.8276 125.406 12.8276C125.741 12.8276 126.01 12.7634 126.214 12.6348C126.42 12.5033 126.525 12.3343 126.528 12.128C126.525 11.9546 126.451 11.8126 126.308 11.702C126.164 11.5884 125.943 11.5017 125.644 11.4419L124.451 11.2042C123.779 11.0696 123.278 10.8364 122.949 10.5046C122.623 10.1727 122.46 9.74966 122.46 9.23541C122.46 8.79292 122.58 8.41173 122.819 8.09182C123.061 7.77191 123.4 7.52526 123.837 7.35185C124.276 7.17844 124.791 7.09174 125.38 7.09174C126.25 7.09174 126.934 7.27561 127.434 7.64335C127.936 8.0111 128.229 8.51188 128.313 9.14572Z" fill="white"/>
<path d="M52.9654 29.4293H50.8845L54.0552 20.2447H56.5576L59.7238 29.4293H57.6429L55.3423 22.3435H55.2705L52.9654 29.4293ZM52.8354 25.8192H57.7506V27.335H52.8354V25.8192Z" fill="white"/>
<path d="M60.7934 32.0125V22.5409H62.677V23.6979H62.7622C62.8459 23.5125 62.967 23.3242 63.1255 23.1328C63.2869 22.9385 63.4962 22.777 63.7533 22.6485C64.0134 22.5169 64.3363 22.4512 64.722 22.4512C65.2243 22.4512 65.6877 22.5827 66.1123 22.8458C66.5368 23.1059 66.8761 23.4991 67.1303 24.0253C67.3844 24.5485 67.5115 25.2048 67.5115 25.9941C67.5115 26.7624 67.3874 27.4112 67.1392 27.9404C66.8941 28.4666 66.5592 28.8657 66.1347 29.1378C65.7131 29.4069 65.2407 29.5414 64.7175 29.5414C64.3468 29.5414 64.0314 29.4801 63.7713 29.3576C63.5141 29.235 63.3033 29.081 63.1389 28.8956C62.9745 28.7073 62.8489 28.5174 62.7622 28.3261H62.7039V32.0125H60.7934ZM62.6635 25.9851C62.6635 26.3947 62.7203 26.752 62.834 27.0569C62.9476 27.3619 63.112 27.5996 63.3273 27.77C63.5425 27.9374 63.8041 28.0211 64.1121 28.0211C64.423 28.0211 64.6861 27.9359 64.9014 27.7655C65.1167 27.5921 65.2796 27.3529 65.3902 27.048C65.5038 26.74 65.5606 26.3857 65.5606 25.9851C65.5606 25.5874 65.5053 25.2376 65.3947 24.9357C65.2841 24.6337 65.1211 24.3975 64.9059 24.2271C64.6906 24.0567 64.426 23.9715 64.1121 23.9715C63.8011 23.9715 63.538 24.0537 63.3228 24.2181C63.1105 24.3826 62.9476 24.6158 62.834 24.9177C62.7203 25.2197 62.6635 25.5755 62.6635 25.9851Z" fill="white"/>
<path d="M68.7851 32.0125V22.5409H70.6687V23.6979H70.7539C70.8376 23.5125 70.9587 23.3242 71.1172 23.1328C71.2786 22.9385 71.4879 22.777 71.745 22.6485C72.0051 22.5169 72.328 22.4512 72.7137 22.4512C73.216 22.4512 73.6794 22.5827 74.104 22.8458C74.5285 23.1059 74.8678 23.4991 75.122 24.0253C75.3761 24.5485 75.5032 25.2048 75.5032 25.9941C75.5032 26.7624 75.3791 27.4112 75.1309 27.9404C74.8858 28.4666 74.5509 28.8657 74.1264 29.1378C73.7048 29.4069 73.2324 29.5414 72.7092 29.5414C72.3385 29.5414 72.0231 29.4801 71.763 29.3576C71.5058 29.235 71.2951 29.081 71.1306 28.8956C70.9662 28.7073 70.8406 28.5174 70.7539 28.3261H70.6956V32.0125H68.7851ZM70.6552 25.9851C70.6552 26.3947 70.712 26.752 70.8257 27.0569C70.9393 27.3619 71.1037 27.5996 71.319 27.77C71.5342 27.9374 71.7958 28.0211 72.1038 28.0211C72.4147 28.0211 72.6778 27.9359 72.8931 27.7655C73.1084 27.5921 73.2713 27.3529 73.3819 27.048C73.4955 26.74 73.5523 26.3857 73.5523 25.9851C73.5523 25.5874 73.497 25.2376 73.3864 24.9357C73.2758 24.6337 73.1128 24.3975 72.8976 24.2271C72.6823 24.0567 72.4177 23.9715 72.1038 23.9715C71.7928 23.9715 71.5297 24.0537 71.3145 24.2181C71.1022 24.3826 70.9393 24.6158 70.8257 24.9177C70.712 25.2197 70.6552 25.5755 70.6552 25.9851Z" fill="white"/>
<path d="M78.6873 20.2447V29.4293H76.7768V20.2447H78.6873Z" fill="white"/>
<path d="M80.2177 29.4293V22.5409H82.1282V29.4293H80.2177ZM81.1774 21.6529C80.8934 21.6529 80.6497 21.5587 80.4464 21.3704C80.2461 21.179 80.1459 20.9503 80.1459 20.6842C80.1459 20.4211 80.2461 20.1954 80.4464 20.007C80.6497 19.8157 80.8934 19.72 81.1774 19.72C81.4614 19.72 81.7036 19.8157 81.9039 20.007C82.1072 20.1954 82.2089 20.4211 82.2089 20.6842C82.2089 20.9503 82.1072 21.179 81.9039 21.3704C81.7036 21.5587 81.4614 21.6529 81.1774 21.6529Z" fill="white"/>
<path d="M86.7709 29.5639C86.0653 29.5639 85.4584 29.4144 84.9502 29.1154C84.4449 28.8134 84.0562 28.3949 83.7841 27.8597C83.5151 27.3245 83.3805 26.7086 83.3805 26.012C83.3805 25.3064 83.5166 24.6875 83.7886 24.1553C84.0637 23.6202 84.4538 23.2031 84.9591 22.9041C85.4644 22.6021 86.0653 22.4512 86.762 22.4512C87.3629 22.4512 87.8891 22.5603 88.3406 22.7785C88.792 22.9968 89.1493 23.3032 89.4124 23.6979C89.6755 24.0926 89.8205 24.556 89.8474 25.0882H88.0446C87.9938 24.7443 87.8592 24.4678 87.641 24.2585C87.4257 24.0462 87.1432 23.9401 86.7934 23.9401C86.4974 23.9401 86.2388 24.0208 86.0175 24.1822C85.7993 24.3407 85.6288 24.5724 85.5063 24.8774C85.3837 25.1823 85.3224 25.5516 85.3224 25.9851C85.3224 26.4246 85.3822 26.7983 85.5018 27.1063C85.6243 27.4142 85.7963 27.6489 86.0175 27.8104C86.2388 27.9718 86.4974 28.0525 86.7934 28.0525C87.0116 28.0525 87.2074 28.0077 87.3809 27.918C87.5572 27.8283 87.7023 27.6982 87.8159 27.5278C87.9325 27.3544 88.0087 27.1466 88.0446 26.9044H89.8474C89.8175 27.4306 89.674 27.8941 89.4169 28.2947C89.1628 28.6923 88.8115 29.0033 88.363 29.2275C87.9145 29.4517 87.3838 29.5639 86.7709 29.5639Z" fill="white"/>
<path d="M93.0349 29.5594C92.5954 29.5594 92.2038 29.4831 91.8599 29.3307C91.5161 29.1752 91.244 28.9465 91.0437 28.6445C90.8464 28.3395 90.7477 27.9598 90.7477 27.5054C90.7477 27.1227 90.818 26.8013 90.9585 26.5412C91.099 26.2811 91.2904 26.0718 91.5325 25.9133C91.7747 25.7549 92.0498 25.6353 92.3577 25.5546C92.6687 25.4738 92.9946 25.417 93.3354 25.3841C93.736 25.3423 94.0589 25.3034 94.3041 25.2675C94.5492 25.2287 94.7271 25.1719 94.8378 25.0971C94.9484 25.0224 95.0037 24.9118 95.0037 24.7653V24.7383C95.0037 24.4543 94.914 24.2346 94.7346 24.0791C94.5582 23.9236 94.3071 23.8459 93.9812 23.8459C93.6374 23.8459 93.3638 23.9221 93.1605 24.0746C92.9572 24.2241 92.8226 24.4125 92.7569 24.6397L90.9899 24.4962C91.0796 24.0776 91.256 23.7158 91.5191 23.4109C91.7822 23.1029 92.1215 22.8667 92.5371 22.7023C92.9557 22.5349 93.44 22.4512 93.9901 22.4512C94.3728 22.4512 94.7391 22.496 95.0889 22.5857C95.4417 22.6754 95.7541 22.8144 96.0262 23.0028C96.3013 23.1911 96.518 23.4333 96.6765 23.7293C96.8349 24.0223 96.9142 24.3736 96.9142 24.7832V29.4293H95.1023V28.4741H95.0485C94.9379 28.6894 94.7899 28.8792 94.6046 29.0436C94.4192 29.2051 94.1964 29.3322 93.9363 29.4248C93.6762 29.5145 93.3757 29.5594 93.0349 29.5594ZM93.582 28.2409C93.8631 28.2409 94.1112 28.1856 94.3265 28.075C94.5418 27.9613 94.7107 27.8089 94.8333 27.6175C94.9559 27.4262 95.0171 27.2094 95.0171 26.9672V26.2362C94.9573 26.2751 94.8751 26.311 94.7705 26.3439C94.6688 26.3738 94.5537 26.4022 94.4252 26.4291C94.2966 26.453 94.168 26.4754 94.0395 26.4963C93.9109 26.5143 93.7943 26.5307 93.6897 26.5457C93.4654 26.5786 93.2696 26.6309 93.1022 26.7026C92.9348 26.7744 92.8047 26.8716 92.712 26.9941C92.6193 27.1137 92.573 27.2632 92.573 27.4426C92.573 27.7027 92.6672 27.9015 92.8555 28.0391C93.0469 28.1736 93.289 28.2409 93.582 28.2409Z" fill="white"/>
<path d="M102.06 22.5409V23.976H97.912V22.5409H102.06ZM98.8538 20.8905H100.764V27.3126C100.764 27.489 100.791 27.6265 100.845 27.7251C100.899 27.8208 100.974 27.8881 101.069 27.927C101.168 27.9658 101.281 27.9853 101.41 27.9853C101.5 27.9853 101.589 27.9778 101.679 27.9628C101.769 27.9449 101.838 27.9314 101.885 27.9225L102.186 29.3441C102.09 29.374 101.956 29.4084 101.782 29.4473C101.609 29.4891 101.398 29.5145 101.15 29.5235C100.69 29.5414 100.286 29.4801 99.9391 29.3396C99.5953 29.1991 99.3277 28.9809 99.1363 28.6849C98.945 28.3889 98.8508 28.0152 98.8538 27.5637V20.8905Z" fill="white"/>
<path d="M103.305 29.4293V22.5409H105.215V29.4293H103.305ZM104.265 21.6529C103.981 21.6529 103.737 21.5587 103.534 21.3704C103.333 21.179 103.233 20.9503 103.233 20.6842C103.233 20.4211 103.333 20.1954 103.534 20.007C103.737 19.8157 103.981 19.72 104.265 19.72C104.549 19.72 104.791 19.8157 104.991 20.007C105.194 20.1954 105.296 20.4211 105.296 20.6842C105.296 20.9503 105.194 21.179 104.991 21.3704C104.791 21.5587 104.549 21.6529 104.265 21.6529Z" fill="white"/>
<path d="M109.858 29.5639C109.161 29.5639 108.559 29.4159 108.051 29.1199C107.545 28.8209 107.155 28.4053 106.88 27.8731C106.605 27.338 106.468 26.7176 106.468 26.012C106.468 25.3004 106.605 24.6786 106.88 24.1464C107.155 23.6112 107.545 23.1956 108.051 22.8996C108.559 22.6007 109.161 22.4512 109.858 22.4512C110.555 22.4512 111.156 22.6007 111.661 22.8996C112.169 23.1956 112.561 23.6112 112.836 24.1464C113.111 24.6786 113.248 25.3004 113.248 26.012C113.248 26.7176 113.111 27.338 112.836 27.8731C112.561 28.4053 112.169 28.8209 111.661 29.1199C111.156 29.4159 110.555 29.5639 109.858 29.5639ZM109.867 28.0839C110.184 28.0839 110.449 27.9942 110.661 27.8148C110.873 27.6325 111.033 27.3843 111.141 27.0704C111.251 26.7565 111.307 26.3992 111.307 25.9985C111.307 25.5979 111.251 25.2406 111.141 24.9267C111.033 24.6128 110.873 24.3646 110.661 24.1822C110.449 23.9999 110.184 23.9087 109.867 23.9087C109.547 23.9087 109.278 23.9999 109.06 24.1822C108.845 24.3646 108.682 24.6128 108.571 24.9267C108.463 25.2406 108.41 25.5979 108.41 25.9985C108.41 26.3992 108.463 26.7565 108.571 27.0704C108.682 27.3843 108.845 27.6325 109.06 27.8148C109.278 27.9942 109.547 28.0839 109.867 28.0839Z" fill="white"/>
<path d="M116.401 25.4469V29.4293H114.491V22.5409H116.312V23.7562H116.392C116.545 23.3556 116.8 23.0387 117.159 22.8054C117.518 22.5693 117.953 22.4512 118.464 22.4512C118.943 22.4512 119.36 22.5558 119.715 22.7651C120.071 22.9744 120.348 23.2734 120.545 23.662C120.742 24.0477 120.841 24.5081 120.841 25.0433V29.4293H118.931V25.3841C118.934 24.9626 118.826 24.6337 118.608 24.3975C118.389 24.1583 118.089 24.0387 117.706 24.0387C117.449 24.0387 117.222 24.094 117.025 24.2047C116.83 24.3153 116.678 24.4767 116.567 24.689C116.46 24.8983 116.404 25.1509 116.401 25.4469Z" fill="white"/>
</g>
<defs>
<filter id="filter0_d_1055_51" x="10.7024" y="6.66953" width="37.4543" height="37.4543" filterUnits="userSpaceOnUse" color-interpolation-filters="sRGB">
<feFlood flood-opacity="0" result="BackgroundImageFix"/>
<feColorMatrix in="SourceAlpha" type="matrix" values="0 0 0 0 0 0 0 0 0 0 0 0 0 0 0 0 0 0 127 0" result="hardAlpha"/>
<feOffset dy="4"/>
<feGaussianBlur stdDeviation="2"/>
<feComposite in2="hardAlpha" operator="out"/>
<feColorMatrix type="matrix" values="0 0 0 0 0 0 0 0 0 0 0 0 0 0 0 0 0 0 0.25 0"/>
<feBlend mode="normal" in2="BackgroundImageFix" result="effect1_dropShadow_1055_51"/>
<feBlend mode="normal" in="SourceGraphic" in2="effect1_dropShadow_1055_51" result="shape"/>
</filter>
<filter id="filter1_d_1055_51" x="0.982178" y="3.72012" width="37.3948" height="37.3949" filterUnits="userSpaceOnUse" color-interpolation-filters="sRGB">
<feFlood flood-opacity="0" result="BackgroundImageFix"/>
<feColorMatrix in="SourceAlpha" type="matrix" values="0 0 0 0 0 0 0 0 0 0 0 0 0 0 0 0 0 0 127 0" result="hardAlpha"/>
<feOffset dy="4"/>
<feGaussianBlur stdDeviation="2"/>
<feComposite in2="hardAlpha" operator="out"/>
<feColorMatrix type="matrix" values="0 0 0 0 0 0 0 0 0 0 0 0 0 0 0 0 0 0 0.25 0"/>
<feBlend mode="normal" in2="BackgroundImageFix" result="effect1_dropShadow_1055_51"/>
<feBlend mode="normal" in="SourceGraphic" in2="effect1_dropShadow_1055_51" result="shape"/>
</filter>
<filter id="filter2_d_1055_51" x="6.83447" y="0.249252" width="36.0447" height="36.0447" filterUnits="userSpaceOnUse" color-interpolation-filters="sRGB">
<feFlood flood-opacity="0" result="BackgroundImageFix"/>
<feColorMatrix in="SourceAlpha" type="matrix" values="0 0 0 0 0 0 0 0 0 0 0 0 0 0 0 0 0 0 127 0" result="hardAlpha"/>
<feOffset dy="4"/>
<feGaussianBlur stdDeviation="2"/>
<feComposite in2="hardAlpha" operator="out"/>
<feColorMatrix type="matrix" values="0 0 0 0 0 0 0 0 0 0 0 0 0 0 0 0 0 0 0.25 0"/>
<feBlend mode="normal" in2="BackgroundImageFix" result="effect1_dropShadow_1055_51"/>
<feBlend mode="normal" in="SourceGraphic" in2="effect1_dropShadow_1055_51" result="shape"/>
</filter>
<filter id="filter3_d_1055_51" x="46.8845" y="4.36057" width="85.585" height="35.6519" filterUnits="userSpaceOnUse" color-interpolation-filters="sRGB">
<feFlood flood-opacity="0" result="BackgroundImageFix"/>
<feColorMatrix in="SourceAlpha" type="matrix" values="0 0 0 0 0 0 0 0 0 0 0 0 0 0 0 0 0 0 127 0" result="hardAlpha"/>
<feOffset dy="4"/>
<feGaussianBlur stdDeviation="2"/>
<feComposite in2="hardAlpha" operator="out"/>
<feColorMatrix type="matrix" values="0 0 0 0 0 0 0 0 0 0 0 0 0 0 0 0 0 0 0.25 0"/>
<feBlend mode="normal" in2="BackgroundImageFix" result="effect1_dropShadow_1055_51"/>
<feBlend mode="normal" in="SourceGraphic" in2="effect1_dropShadow_1055_51" result="shape"/>
</filter>
</defs>
</svg>
