<svg width="25" height="26" viewBox="0 0 25 26" fill="none" xmlns="http://www.w3.org/2000/svg">
<path fill-rule="evenodd" clip-rule="evenodd" d="M15.3439 15.3123C14.7364 15.3123 14.2439 14.8198 14.2439 14.2123L14.2439 6.05824C14.2439 5.45073 14.7364 4.95824 15.3439 4.95824C15.9514 4.95824 16.4439 5.45073 16.4439 6.05824L16.4439 14.2123C16.4439 14.8198 15.9514 15.3123 15.3439 15.3123Z" fill="black"/>
<path fill-rule="evenodd" clip-rule="evenodd" d="M10.167 10.1353C10.167 9.52776 10.6595 9.03527 11.267 9.03527L19.421 9.03527C20.0286 9.03527 20.521 9.52776 20.521 10.1353C20.521 10.7428 20.0286 11.2353 19.421 11.2353L11.267 11.2353C10.6595 11.2353 10.167 10.7428 10.167 10.1353Z" fill="black"/>
<path d="M3.54757 24.6973L11.6869 16.8946L8.67068 14.0579L0.793758 21.8737C0.0255683 22.636 0.0151095 23.8748 0.770321 24.6499C1.52605 25.4255 2.76583 25.4467 3.54757 24.6973Z" fill="black"/>
<path fill-rule="evenodd" clip-rule="evenodd" d="M15.3441 19.5687C20.5541 19.5687 24.7776 15.3452 24.7776 10.1353C24.7776 4.9253 20.5541 0.70179 15.3441 0.70179C10.1342 0.70179 5.91064 4.9253 5.91064 10.1353C5.91064 15.3452 10.1342 19.5687 15.3441 19.5687ZM15.3439 17.4667C19.393 17.4667 22.6754 14.1843 22.6754 10.1353C22.6754 6.08621 19.393 2.8038 15.3439 2.8038C11.2949 2.8038 8.01245 6.08621 8.01245 10.1353C8.01245 14.1843 11.2949 17.4667 15.3439 17.4667Z" fill="black"/>
</svg>
