<svg width="30" height="33" viewBox="0 0 30 33" fill="none" xmlns="http://www.w3.org/2000/svg">
<path d="M16.4158 6.8252H15.085L17.1128 0.950974H18.7133L20.7383 6.8252H19.4074L17.936 2.29333H17.8901L16.4158 6.8252ZM16.3327 4.51624H19.4763V5.48571H16.3327V4.51624Z" fill="white"/>
<path d="M21.4454 6.8252V0.950974H22.6873V5.80123H25.2057V6.8252H21.4454Z" fill="white"/>
<path d="M26.0281 6.8252V0.950974H27.2701V5.80123H29.7885V6.8252H26.0281Z" fill="white"/>
<path d="M1.32297 32.1311L9.08367 25.7447C9.46708 25.4292 9.9946 25.4306 10.3767 25.748L18.0486 32.1226C18.4023 32.4165 18.9099 32.1397 18.9099 31.6528V11.6303C18.9099 10.4912 18.0683 9.56772 17.0301 9.56772H2.34345C1.30525 9.56772 0.463623 10.4912 0.463623 11.6303V31.6597C0.463623 32.1453 0.968902 32.4225 1.32297 32.1311Z" fill="white"/>
</svg>
